# xmcd
#
# Track frame offsets:
# 150
# 16242
# 32675
# 49947
# 72280
# 96287
# 120575
# 139417
# 168962
# 189422
# 213760
# 227425
# 240037
# 262362
#
# Disc length: 3570 seconds
#
#
# Revision: 6
# Processed by: cddbd v1.5.2PL0 Copyright (c) Steve Scherf et al.
# Submitted via: FreeRIP 2.96 
#
DISCID=b90df00e
DTITLE=Counting Crows - Recovering The Satellites - Counting Crows - Recovering The Satellites
DYEAR=1996
DGENRE=Rock
TTITLE0=Catapult
TTITLE1=Angels Of The Silences
TTITLE2=Daylight Fading
TTITLE3=I'm Not Sleeping
TTITLE4=Goodnight Elisabeth
TTITLE5=Children In Bloom
TTITLE6=Have You Seen Me Lately?
TTITLE7=Miller's Angels
TTITLE8=Another Horsedreamer's Blues
TTITLE9=Recovering The Satellites
TTITLE10=Monkey
TTITLE11=Mercury
TTITLE12=A Long December
TTITLE13=Walkaways
EXTD=ID3G:  17 YEAR: 1996
EXTT0=
EXTT1=
EXTT2=
EXTT3=
EXTT4=
EXTT5=
EXTT6=
EXTT7=
EXTT8=
EXTT9=
EXTT10=
EXTT11=
EXTT12=
EXTT13=
PLAYORDER=
